<svg xmlns="http://www.w3.org/2000/svg" xmlns:xlink="http://www.w3.org/1999/xlink" width="183.622" height="167.718" viewBox="0 0 183.622 167.718">
  <defs>
    <linearGradient id="linear-gradient" x1="0.5" y1="1" x2="0.5" gradientUnits="objectBoundingBox">
      <stop offset="0" stop-color="#b6b8bf"/>
      <stop offset="1" stop-color="#fff"/>
    </linearGradient>
    <linearGradient id="linear-gradient-8" x1="0" y1="0.5" x2="1" y2="0.5" xlink:href="#linear-gradient"/>
    <linearGradient id="linear-gradient-9" x1="-0.707" y1="0.5" x2="1242.374" y2="0.5" gradientUnits="objectBoundingBox">
      <stop offset="0" stop-color="#006fb1"/>
      <stop offset="1" stop-color="#003e6f"/>
    </linearGradient>
    <linearGradient id="linear-gradient-10" x1="-177.387" y1="0.5" x2="135.527" y2="0.5" xlink:href="#linear-gradient-9"/>
    <linearGradient id="linear-gradient-11" x1="0.685" y1="0.956" x2="-0.063" y2="-0.008" xlink:href="#linear-gradient"/>
    <linearGradient id="linear-gradient-12" x1="0.5" y1="-458.728" x2="0.5" y2="1476.754" xlink:href="#linear-gradient-9"/>
    <linearGradient id="linear-gradient-13" x1="-124.433" y1="0.5" x2="108.598" y2="0.5" xlink:href="#linear-gradient-9"/>
    <linearGradient id="linear-gradient-14" x1="0.5" y1="-335.368" x2="0.5" y2="1066.816" xlink:href="#linear-gradient-9"/>
    <linearGradient id="linear-gradient-15" x1="-256.174" y1="0.5" x2="319.39" y2="0.5" xlink:href="#linear-gradient-9"/>
    <linearGradient id="linear-gradient-16" x1="0.5" y1="-118.862" x2="0.5" y2="286.184" xlink:href="#linear-gradient-9"/>
    <linearGradient id="linear-gradient-17" x1="-22.572" y1="0.5" x2="21.595" y2="0.5" xlink:href="#linear-gradient-9"/>
    <linearGradient id="linear-gradient-18" x1="0.5" y1="-41.011" x2="0.5" y2="129.912" xlink:href="#linear-gradient-9"/>
    <linearGradient id="linear-gradient-19" x1="-179.761" y1="0.5" x2="178.355" y2="0.5" xlink:href="#linear-gradient-9"/>
    <linearGradient id="linear-gradient-20" x1="0.5" y1="-214.49" x2="0.5" y2="650.051" xlink:href="#linear-gradient-9"/>
    <linearGradient id="linear-gradient-21" x1="-188.25" y1="0.5" x2="190.358" y2="0.5" xlink:href="#linear-gradient-9"/>
    <linearGradient id="linear-gradient-22" x1="0.5" y1="-206.313" x2="0.5" y2="618.472" xlink:href="#linear-gradient-9"/>
    <linearGradient id="linear-gradient-23" x1="-166.413" y1="0.501" x2="162.051" y2="0.501" xlink:href="#linear-gradient-9"/>
    <linearGradient id="linear-gradient-24" x1="0.5" y1="-217.345" x2="0.5" y2="665.26" xlink:href="#linear-gradient-9"/>
    <linearGradient id="linear-gradient-25" x1="-133.292" y1="0.501" x2="111.889" y2="0.501" xlink:href="#linear-gradient-9"/>
    <linearGradient id="linear-gradient-26" x1="0.5" y1="-521.128" x2="0.5" y2="1668.788" xlink:href="#linear-gradient-9"/>
    <linearGradient id="linear-gradient-27" x1="-134.714" y1="0.502" x2="110.933" y2="0.502" xlink:href="#linear-gradient-9"/>
    <linearGradient id="linear-gradient-28" x1="0.5" y1="-676.445" x2="0.5" y2="2171.218" xlink:href="#linear-gradient-9"/>
    <linearGradient id="linear-gradient-29" x1="-85.848" y1="0.5" x2="65.672" y2="0.5" xlink:href="#linear-gradient-9"/>
    <linearGradient id="linear-gradient-30" x1="0.5" y1="-170.125" x2="0.5" y2="547.864" xlink:href="#linear-gradient-9"/>
    <linearGradient id="linear-gradient-31" x1="-194.182" y1="0.5" x2="200.126" y2="0.5" xlink:href="#linear-gradient-9"/>
    <linearGradient id="linear-gradient-32" x1="0.5" y1="-196.003" x2="0.5" y2="580.568" xlink:href="#linear-gradient-9"/>
    <linearGradient id="linear-gradient-33" x1="-0.979" y1="0.5" x2="1.016" y2="0.5" xlink:href="#linear-gradient-9"/>
    <linearGradient id="linear-gradient-34" x1="0.5" y1="-0.744" x2="0.5" y2="2.367" xlink:href="#linear-gradient"/>
    <linearGradient id="linear-gradient-35" x1="-133.72" y1="0.495" x2="104.111" y2="0.495" xlink:href="#linear-gradient-9"/>
    <linearGradient id="linear-gradient-36" x1="0.5" y1="-3103.425" x2="0.5" y2="4875.626" xlink:href="#linear-gradient-9"/>
    <linearGradient id="linear-gradient-37" x1="-135.063" y1="0.5" x2="109.129" y2="0.5" xlink:href="#linear-gradient-9"/>
    <linearGradient id="linear-gradient-38" x1="0.5" y1="-928.586" x2="0.5" y2="2985.546" xlink:href="#linear-gradient-9"/>
    <linearGradient id="linear-gradient-39" x1="-134.68" y1="0.498" x2="106.804" y2="0.498" xlink:href="#linear-gradient-9"/>
    <linearGradient id="linear-gradient-40" x1="0.5" y1="-1447.484" x2="0.5" y2="4658.849" xlink:href="#linear-gradient-9"/>
    <linearGradient id="linear-gradient-41" x1="-130.141" y1="0.5" x2="111.383" y2="0.5" xlink:href="#linear-gradient-9"/>
    <linearGradient id="linear-gradient-42" x1="0.5" y1="-418.699" x2="0.5" y2="1336.748" xlink:href="#linear-gradient-9"/>
    <linearGradient id="linear-gradient-43" x1="-210.383" y1="0.5" x2="233.552" y2="0.5" xlink:href="#linear-gradient-9"/>
    <linearGradient id="linear-gradient-44" x1="0.5" y1="-157.552" x2="0.5" y2="439.969" xlink:href="#linear-gradient-9"/>
    <linearGradient id="linear-gradient-45" x1="-245.44" y1="0.5" x2="301.422" y2="0.5" xlink:href="#linear-gradient-9"/>
    <linearGradient id="linear-gradient-46" x1="0.501" y1="-121.968" x2="0.501" y2="301.06" xlink:href="#linear-gradient-9"/>
    <linearGradient id="linear-gradient-47" x1="-290.091" y1="0.5" x2="223.4" y2="0.5" xlink:href="#linear-gradient-9"/>
    <linearGradient id="linear-gradient-48" x1="0.5" y1="-335.252" x2="0.5" y2="1071.359" xlink:href="#linear-gradient-9"/>
    <linearGradient id="linear-gradient-49" x1="-269.967" y1="0.5" x2="341.495" y2="0.5" xlink:href="#linear-gradient-9"/>
    <linearGradient id="linear-gradient-50" x1="0.5" y1="-116.468" x2="0.5" y2="273.181" xlink:href="#linear-gradient-9"/>
    <linearGradient id="linear-gradient-51" x1="-236.68" y1="0.5" x2="286.152" y2="0.5" xlink:href="#linear-gradient-9"/>
    <linearGradient id="linear-gradient-52" x1="0.5" y1="-126.079" x2="0.5" y2="318.639" xlink:href="#linear-gradient-9"/>
    <linearGradient id="linear-gradient-53" x1="-214.428" y1="0.5" x2="242.337" y2="0.5" xlink:href="#linear-gradient-9"/>
    <linearGradient id="linear-gradient-54" x1="0.5" y1="-149.904" x2="0.5" y2="411.317" xlink:href="#linear-gradient-9"/>
    <linearGradient id="linear-gradient-55" x1="-223.726" y1="0.5" x2="261.751" y2="0.5" xlink:href="#linear-gradient-9"/>
    <linearGradient id="linear-gradient-56" x1="0.5" y1="-136.536" x2="0.5" y2="360.412" xlink:href="#linear-gradient-9"/>
    <linearGradient id="linear-gradient-57" x1="-218.684" y1="0.5" x2="251.513" y2="0.5" xlink:href="#linear-gradient-9"/>
    <linearGradient id="linear-gradient-58" x1="0.5" y1="-142.72" x2="0.5" y2="384.328" xlink:href="#linear-gradient-9"/>
    <linearGradient id="linear-gradient-59" x1="-229.58" y1="0.5" x2="273.113" y2="0.5" xlink:href="#linear-gradient-9"/>
    <linearGradient id="linear-gradient-60" x1="0.5" y1="-130.799" x2="0.5" y2="338.048" xlink:href="#linear-gradient-9"/>
    <linearGradient id="linear-gradient-61" x1="-207.532" y1="0.5" x2="226.225" y2="0.5" xlink:href="#linear-gradient-9"/>
    <linearGradient id="linear-gradient-62" x1="0.5" y1="-167.113" x2="0.5" y2="474.386" xlink:href="#linear-gradient-9"/>
    <linearGradient id="linear-gradient-63" x1="-402.928" y1="0.5" x2="530.218" y2="0.5" xlink:href="#linear-gradient-9"/>
    <linearGradient id="linear-gradient-64" x1="0.5" y1="-138.62" x2="0.5" y2="297.611" xlink:href="#linear-gradient-9"/>
    <linearGradient id="linear-gradient-65" x1="-325.776" y1="0.5" x2="423.38" y2="0.5" xlink:href="#linear-gradient-9"/>
    <linearGradient id="linear-gradient-66" x1="0.501" y1="-120.814" x2="0.501" y2="267.712" xlink:href="#linear-gradient-9"/>
    <linearGradient id="linear-gradient-67" x1="-203.086" y1="0.5" x2="217.325" y2="0.5" xlink:href="#linear-gradient-9"/>
    <linearGradient id="linear-gradient-68" x1="0.5" y1="-175.914" x2="0.5" y2="507.072" xlink:href="#linear-gradient-9"/>
    <linearGradient id="linear-gradient-69" x1="-198.647" y1="0.5" x2="208.633" y2="0.5" xlink:href="#linear-gradient-9"/>
    <linearGradient id="linear-gradient-70" x1="0.5" y1="-185.753" x2="0.5" y2="543.068" xlink:href="#linear-gradient-9"/>
    <linearGradient id="linear-gradient-71" x1="-289.556" y1="0.5" x2="371.388" y2="0.5" xlink:href="#linear-gradient-9"/>
    <linearGradient id="linear-gradient-72" x1="0.5" y1="-116.361" x2="0.5" y2="265.503" xlink:href="#linear-gradient-9"/>
    <linearGradient id="linear-gradient-73" y1="0.5" x2="1" y2="0.5" gradientUnits="objectBoundingBox">
      <stop offset="0" stop-color="#b6b8bf"/>
      <stop offset="0.314" stop-color="#b8bac1"/>
      <stop offset="0.523" stop-color="#c1c3c9"/>
      <stop offset="0.701" stop-color="#d0d1d6"/>
      <stop offset="0.861" stop-color="#e5e6e8"/>
      <stop offset="1" stop-color="#fff"/>
    </linearGradient>
    <linearGradient id="linear-gradient-74" y1="0.5" x2="1" y2="0.5" gradientUnits="objectBoundingBox">
      <stop offset="0" stop-color="#fff"/>
      <stop offset="0.139" stop-color="#e5e6e8"/>
      <stop offset="0.299" stop-color="#d0d1d6"/>
      <stop offset="0.477" stop-color="#c1c3c9"/>
      <stop offset="0.686" stop-color="#b8bac1"/>
      <stop offset="1" stop-color="#b6b8bf"/>
    </linearGradient>
  </defs>
  <g id="Group_341" data-name="Group 341" transform="translate(-166.404 -198.763)">
    <g id="Group_339" data-name="Group 339" transform="translate(166.404 327.475)">
      <path id="Path_84" data-name="Path 84" d="M174.616,756.819h22.757l-1.311,4.892H178.679l-2.228,8.342h15.419l-1.31,4.892H175.14l-3.32,12.449H166.4Z" transform="translate(-166.404 -748.389)" fill="url(#linear-gradient)"/>
      <path id="Path_85" data-name="Path 85" d="M292.1,730.946H314.55l-1.31,4.8H296.161l-2.14,7.993h15.157l-1.31,4.761H292.754l-2.227,8.211h17.34l-1.31,4.8h-22.67Zm10.526-8.43h4.98l3.713,5.9h-4.106l-2.664-2.533-4.062,2.533h-4.718Z" transform="translate(-255.016 -722.516)" fill="url(#linear-gradient)"/>
      <path id="Path_86" data-name="Path 86" d="M409.4,756.819h4.98l10.352,21.621,5.853-21.621h5.286l-8.212,30.576h-4.5l-10.7-22.233-5.94,22.233H401.19Z" transform="translate(-343.491 -748.389)" fill="url(#linear-gradient)"/>
      <path id="Path_87" data-name="Path 87" d="M550.345,756.819h5.416l-8.212,30.576h-5.416Z" transform="translate(-449.799 -748.389)" fill="url(#linear-gradient)"/>
      <path id="Path_88" data-name="Path 88" d="M601.365,771.539l-7.032-14.72h6.028l4.892,10.92,10.046-10.92h6.9l-14.676,15.375,7.251,15.2h-6.027l-5.154-11.4-10.483,11.4h-6.9Z" transform="translate(-483.041 -748.389)" fill="url(#linear-gradient)"/>
      <path id="Path_89" data-name="Path 89" d="M719.9,756.819h13.541c9.391,0,11.663,3.451,11.663,7.207,0,3.713-2.49,6.814-7.164,8.037a6.133,6.133,0,0,1,4.98,6.028c0,5.154-4.107,9.3-14.589,9.3H711.69Zm8.736,22.844c2.49,0,3.975-1.092,3.975-2.621,0-1.31-1.092-1.922-3.276-1.922h-4.411l-1.223,4.542Zm2.708-10.832c2.62,0,3.8-1.179,3.8-2.49,0-1.266-.961-1.791-3.144-1.791h-4.236l-1.136,4.281Z" transform="translate(-577.686 -748.389)" fill="url(#linear-gradient)"/>
      <path id="Path_90" data-name="Path 90" d="M846.8,756.819h10.221l-8.212,30.576H838.589Z" transform="translate(-673.4 -748.389)" fill="url(#linear-gradient)"/>
    </g>
    <g id="Group_340" data-name="Group 340" transform="translate(178.593 198.763)">
      <path id="Path_91" data-name="Path 91" d="M224.342,281.583a74.482,74.482,0,1,1,129.335,50.382h10.831a82.82,82.82,0,1,0-131.369,0h10.833A74.211,74.211,0,0,1,224.342,281.583Z" transform="translate(-216.004 -198.763)" fill="url(#linear-gradient-8)"/>
      <path id="Path_92" data-name="Path 92" d="M388.727,624.714c.019-.647.043-1.289.073-1.923C388.77,623.425,388.746,624.068,388.727,624.714Z" transform="translate(-346.28 -518.586)" fill="#f7f9f9"/>
      <path id="Path_93" data-name="Path 93" d="M388.727,624.714c.019-.647.043-1.289.073-1.923C388.77,623.425,388.746,624.068,388.727,624.714Z" transform="translate(-346.28 -518.586)" fill="url(#linear-gradient-9)"/>
      <path id="Path_94" data-name="Path 94" d="M598.22,549.055a1.937,1.937,0,0,0-.29.119A2.268,2.268,0,0,1,598.22,549.055Z" transform="translate(-504.072 -462.971)" fill="#f7f9f9"/>
      <path id="Path_95" data-name="Path 95" d="M598.22,549.055a1.937,1.937,0,0,0-.29.119A2.268,2.268,0,0,1,598.22,549.055Z" transform="translate(-504.072 -462.971)" fill="url(#linear-gradient-10)"/>
      <path id="Path_96" data-name="Path 96" d="M427.461,392.743q.125-.513.26-1c.032-.114.065-.222.1-.334.059-.208.119-.417.181-.618.04-.128.081-.25.121-.376.057-.177.114-.356.173-.527.045-.13.092-.255.137-.382.057-.159.114-.319.173-.473.048-.128.1-.25.148-.375.058-.146.116-.293.176-.435.052-.123.1-.24.158-.36.06-.136.12-.272.181-.4s.111-.231.166-.345.123-.253.186-.375.115-.22.173-.328.127-.235.191-.348.12-.209.181-.311.129-.218.195-.323.124-.2.187-.294.132-.2.2-.3.129-.186.193-.276.134-.187.2-.278.133-.174.2-.26.137-.172.206-.255.136-.164.2-.244.138-.158.208-.235.139-.154.209-.228.139-.144.209-.215.144-.144.216-.214.139-.13.208-.193.148-.135.223-.2.137-.116.206-.173.153-.127.23-.187.134-.1.2-.152.16-.12.24-.177c.064-.045.127-.086.191-.13.085-.057.169-.115.254-.169.057-.036.114-.069.171-.1.092-.056.184-.113.276-.165l.126-.067a10.255,10.255,0,0,1,2.055-.853l.024-.008c.13-.038.26-.072.39-.1l.051-.014c.126-.03.251-.058.376-.083l.061-.013c.124-.025.247-.046.37-.066l.061-.011c.124-.019.247-.036.37-.051l.057-.007c.125-.015.249-.027.372-.038l.047,0q.189-.015.376-.024l.035,0c.128-.006.255-.01.382-.011h.012c.2,0,.4,0,.6.005l-.009,0c1.94-.448,5.391.929,9.458,3.819a83.773,83.773,0,0,1,13.01,12.585s8.952-21.772-14.478-45.865c-11.7-12.032-23.65-9.947-29.62-25.641,0,0-5.3,9.745,1.244,18.042a20.41,20.41,0,0,0,5.553,4.89l8.2,5.539s-44.416,3.214-44.623,62.7a106.537,106.537,0,0,1-.726-15.627,102.3,102.3,0,0,0,2.726,26.753h41.683C428.436,415.347,425.138,402.247,427.461,392.743Z" transform="translate(-346.127 -293.623)" fill="#f7f9f9"/>
      <path id="Path_97" data-name="Path 97" d="M427.461,392.743q.125-.513.26-1c.032-.114.065-.222.1-.334.059-.208.119-.417.181-.618.04-.128.081-.25.121-.376.057-.177.114-.356.173-.527.045-.13.092-.255.137-.382.057-.159.114-.319.173-.473.048-.128.1-.25.148-.375.058-.146.116-.293.176-.435.052-.123.1-.24.158-.36.06-.136.12-.272.181-.4s.111-.231.166-.345.123-.253.186-.375.115-.22.173-.328.127-.235.191-.348.12-.209.181-.311.129-.218.195-.323.124-.2.187-.294.132-.2.2-.3.129-.186.193-.276.134-.187.2-.278.133-.174.2-.26.137-.172.206-.255.136-.164.2-.244.138-.158.208-.235.139-.154.209-.228.139-.144.209-.215.144-.144.216-.214.139-.13.208-.193.148-.135.223-.2.137-.116.206-.173.153-.127.23-.187.134-.1.2-.152.16-.12.24-.177c.064-.045.127-.086.191-.13.085-.057.169-.115.254-.169.057-.036.114-.069.171-.1.092-.056.184-.113.276-.165l.126-.067a10.255,10.255,0,0,1,2.055-.853l.024-.008c.13-.038.26-.072.39-.1l.051-.014c.126-.03.251-.058.376-.083l.061-.013c.124-.025.247-.046.37-.066l.061-.011c.124-.019.247-.036.37-.051l.057-.007c.125-.015.249-.027.372-.038l.047,0q.189-.015.376-.024l.035,0c.128-.006.255-.01.382-.011h.012c.2,0,.4,0,.6.005l-.009,0c1.94-.448,5.391.929,9.458,3.819a83.773,83.773,0,0,1,13.01,12.585s8.952-21.772-14.478-45.865c-11.7-12.032-23.65-9.947-29.62-25.641,0,0-5.3,9.745,1.244,18.042a20.41,20.41,0,0,0,5.553,4.89l8.2,5.539s-44.416,3.214-44.623,62.7a106.537,106.537,0,0,1-.726-15.627,102.3,102.3,0,0,0,2.726,26.753h41.683C428.436,415.347,425.138,402.247,427.461,392.743Z" transform="translate(-346.127 -293.623)" fill="url(#linear-gradient-11)"/>
      <path id="Path_98" data-name="Path 98" d="M599.384,548.748a2.613,2.613,0,0,0-.273.075C599.2,548.794,599.29,548.77,599.384,548.748Z" transform="translate(-504.963 -462.739)" fill="#f7f9f9"/>
      <path id="Path_99" data-name="Path 99" d="M599.384,548.748a2.613,2.613,0,0,0-.273.075C599.2,548.794,599.29,548.77,599.384,548.748Z" transform="translate(-504.963 -462.739)" fill="url(#linear-gradient-12)"/>
      <path id="Path_100" data-name="Path 100" d="M585.773,550.138c.13-.038.26-.072.39-.1C586.033,550.066,585.9,550.1,585.773,550.138Z" transform="translate(-494.902 -463.709)" fill="#f7f9f9"/>
      <path id="Path_101" data-name="Path 101" d="M585.773,550.138c.13-.038.26-.072.39-.1C586.033,550.066,585.9,550.1,585.773,550.138Z" transform="translate(-494.902 -463.709)" fill="url(#linear-gradient-13)"/>
      <path id="Path_102" data-name="Path 102" d="M585.773,550.138c.13-.038.26-.072.39-.1C586.033,550.066,585.9,550.1,585.773,550.138Z" transform="translate(-494.902 -463.709)" fill="url(#linear-gradient-14)"/>
      <path id="Path_103" data-name="Path 103" d="M552.935,582.6c.052-.123.1-.24.158-.36C553.04,582.36,552.987,582.477,552.935,582.6Z" transform="translate(-470.134 -488.001)" fill="#f7f9f9"/>
      <path id="Path_104" data-name="Path 104" d="M552.935,582.6c.052-.123.1-.24.158-.36C553.04,582.36,552.987,582.477,552.935,582.6Z" transform="translate(-470.134 -488.001)" fill="url(#linear-gradient-15)"/>
      <path id="Path_105" data-name="Path 105" d="M552.935,582.6c.052-.123.1-.24.158-.36C553.04,582.36,552.987,582.477,552.935,582.6Z" transform="translate(-470.134 -488.001)" fill="url(#linear-gradient-16)"/>
      <path id="Path_106" data-name="Path 106" d="M577.311,551.341a10.267,10.267,0,0,1,2.055-.853A10.253,10.253,0,0,0,577.311,551.341Z" transform="translate(-488.52 -464.052)" fill="#f7f9f9"/>
      <path id="Path_107" data-name="Path 107" d="M577.311,551.341a10.267,10.267,0,0,1,2.055-.853A10.253,10.253,0,0,0,577.311,551.341Z" transform="translate(-488.52 -464.052)" fill="url(#linear-gradient-17)"/>
      <path id="Path_108" data-name="Path 108" d="M577.311,551.341a10.267,10.267,0,0,1,2.055-.853A10.253,10.253,0,0,0,577.311,551.341Z" transform="translate(-488.52 -464.052)" fill="url(#linear-gradient-18)"/>
      <path id="Path_109" data-name="Path 109" d="M573.947,555.5c.085-.057.169-.115.254-.169C574.116,555.382,574.032,555.439,573.947,555.5Z" transform="translate(-485.983 -467.702)" fill="#f7f9f9"/>
      <path id="Path_110" data-name="Path 110" d="M573.947,555.5c.085-.057.169-.115.254-.169C574.116,555.382,574.032,555.439,573.947,555.5Z" transform="translate(-485.983 -467.702)" fill="url(#linear-gradient-19)"/>
      <path id="Path_111" data-name="Path 111" d="M573.947,555.5c.085-.057.169-.115.254-.169C574.116,555.382,574.032,555.439,573.947,555.5Z" transform="translate(-485.983 -467.702)" fill="url(#linear-gradient-20)"/>
      <path id="Path_112" data-name="Path 112" d="M572.194,556.718c.08-.059.16-.12.24-.177C572.354,556.6,572.274,556.658,572.194,556.718Z" transform="translate(-484.66 -468.617)" fill="#f7f9f9"/>
      <path id="Path_113" data-name="Path 113" d="M572.194,556.718c.08-.059.16-.12.24-.177C572.354,556.6,572.274,556.658,572.194,556.718Z" transform="translate(-484.66 -468.617)" fill="url(#linear-gradient-21)"/>
      <path id="Path_114" data-name="Path 114" d="M572.194,556.718c.08-.059.16-.12.24-.177C572.354,556.6,572.274,556.658,572.194,556.718Z" transform="translate(-484.66 -468.617)" fill="url(#linear-gradient-22)"/>
      <path id="Path_115" data-name="Path 115" d="M575.675,554.4c.092-.056.184-.113.276-.165C575.859,554.286,575.767,554.342,575.675,554.4Z" transform="translate(-487.286 -466.876)" fill="#f7f9f9"/>
      <path id="Path_116" data-name="Path 116" d="M575.675,554.4c.092-.056.184-.113.276-.165C575.859,554.286,575.767,554.342,575.675,554.4Z" transform="translate(-487.286 -466.876)" fill="url(#linear-gradient-23)"/>
      <path id="Path_117" data-name="Path 117" d="M575.675,554.4c.092-.056.184-.113.276-.165C575.859,554.286,575.767,554.342,575.675,554.4Z" transform="translate(-487.286 -466.876)" fill="url(#linear-gradient-24)"/>
      <path id="Path_118" data-name="Path 118" d="M589.346,549.383c.124-.025.247-.046.37-.066C589.593,549.337,589.47,549.359,589.346,549.383Z" transform="translate(-497.597 -463.169)" fill="#f7f9f9"/>
      <path id="Path_119" data-name="Path 119" d="M589.346,549.383c.124-.025.247-.046.37-.066C589.593,549.337,589.47,549.359,589.346,549.383Z" transform="translate(-497.597 -463.169)" fill="url(#linear-gradient-25)"/>
      <path id="Path_120" data-name="Path 120" d="M589.346,549.383c.124-.025.247-.046.37-.066C589.593,549.337,589.47,549.359,589.346,549.383Z" transform="translate(-497.597 -463.169)" fill="url(#linear-gradient-26)"/>
      <path id="Path_121" data-name="Path 121" d="M591.1,549.117c.124-.019.247-.036.37-.051C591.349,549.081,591.226,549.1,591.1,549.117Z" transform="translate(-498.922 -462.979)" fill="#f7f9f9"/>
      <path id="Path_122" data-name="Path 122" d="M591.1,549.117c.124-.019.247-.036.37-.051C591.349,549.081,591.226,549.1,591.1,549.117Z" transform="translate(-498.922 -462.979)" fill="url(#linear-gradient-27)"/>
      <path id="Path_123" data-name="Path 123" d="M591.1,549.117c.124-.019.247-.036.37-.051C591.349,549.081,591.226,549.1,591.1,549.117Z" transform="translate(-498.922 -462.979)" fill="url(#linear-gradient-28)"/>
      <path id="Path_124" data-name="Path 124" d="M597.817,548.712c.017.117.028.2.028.2a1.924,1.924,0,0,1,.29-.119,2.6,2.6,0,0,1,.273-.075l.009,0C598.22,548.711,598.02,548.71,597.817,548.712Z" transform="translate(-503.987 -462.711)" fill="#f7f9f9"/>
      <path id="Path_125" data-name="Path 125" d="M597.817,548.712c.017.117.028.2.028.2a1.924,1.924,0,0,1,.29-.119,2.6,2.6,0,0,1,.273-.075l.009,0C598.22,548.711,598.02,548.71,597.817,548.712Z" transform="translate(-503.987 -462.711)" fill="url(#linear-gradient-29)"/>
      <path id="Path_126" data-name="Path 126" d="M597.817,548.712c.017.117.028.2.028.2a1.924,1.924,0,0,1,.29-.119,2.6,2.6,0,0,1,.273-.075l.009,0C598.22,548.711,598.02,548.71,597.817,548.712Z" transform="translate(-503.987 -462.711)" fill="url(#linear-gradient-30)"/>
      <path id="Path_127" data-name="Path 127" d="M570.437,558.067c.077-.064.153-.128.23-.187C570.59,557.939,570.514,558,570.437,558.067Z" transform="translate(-483.335 -469.626)" fill="#f7f9f9"/>
      <path id="Path_128" data-name="Path 128" d="M570.437,558.067c.077-.064.153-.128.23-.187C570.59,557.939,570.514,558,570.437,558.067Z" transform="translate(-483.335 -469.626)" fill="url(#linear-gradient-31)"/>
      <path id="Path_129" data-name="Path 129" d="M570.437,558.067c.077-.064.153-.128.23-.187C570.59,557.939,570.514,558,570.437,558.067Z" transform="translate(-483.335 -469.626)" fill="url(#linear-gradient-32)"/>
      <path id="Path_130" data-name="Path 130" d="M573.777,581.805a112.851,112.851,0,0,0,7.65,15.113H615.29c-2.039-8.6-7.963-17.966-21.519-25.634-1.544-.873-3.077-2-4.769-3.135-1.574-1.054-3.077-1.995-4.533-2.9-5.492-3.433-8.573-5.489-9.674-8.555a6.362,6.362,0,0,1,.454-5.14,4.133,4.133,0,0,1,1.255-1.507C574.847,551.077,564.133,558.854,573.777,581.805Z" transform="translate(-482.854 -463.716)" fill="#f7f9f9"/>
      <path id="Path_131" data-name="Path 131" d="M573.777,581.805a112.851,112.851,0,0,0,7.65,15.113H615.29c-2.039-8.6-7.963-17.966-21.519-25.634-1.544-.873-3.077-2-4.769-3.135-1.574-1.054-3.077-1.995-4.533-2.9-5.492-3.433-8.573-5.489-9.674-8.555a6.362,6.362,0,0,1,.454-5.14,4.133,4.133,0,0,1,1.255-1.507C574.847,551.077,564.133,558.854,573.777,581.805Z" transform="translate(-482.854 -463.716)" fill="url(#linear-gradient-33)"/>
      <path id="Path_132" data-name="Path 132" d="M573.777,581.805a112.851,112.851,0,0,0,7.65,15.113H615.29c-2.039-8.6-7.963-17.966-21.519-25.634-1.544-.873-3.077-2-4.769-3.135-1.574-1.054-3.077-1.995-4.533-2.9-5.492-3.433-8.573-5.489-9.674-8.555a6.362,6.362,0,0,1,.454-5.14,4.133,4.133,0,0,1,1.255-1.507C574.847,551.077,564.133,558.854,573.777,581.805Z" transform="translate(-482.854 -463.716)" fill="url(#linear-gradient-34)"/>
      <path id="Path_133" data-name="Path 133" d="M596.217,548.728c.128-.006.255-.01.382-.011C596.472,548.719,596.345,548.722,596.217,548.728Z" transform="translate(-502.78 -462.716)" fill="#f7f9f9"/>
      <path id="Path_134" data-name="Path 134" d="M596.217,548.728c.128-.006.255-.01.382-.011C596.472,548.719,596.345,548.722,596.217,548.728Z" transform="translate(-502.78 -462.716)" fill="url(#linear-gradient-35)"/>
      <path id="Path_135" data-name="Path 135" d="M596.217,548.728c.128-.006.255-.01.382-.011C596.472,548.719,596.345,548.722,596.217,548.728Z" transform="translate(-502.78 -462.716)" fill="url(#linear-gradient-36)"/>
      <path id="Path_136" data-name="Path 136" d="M592.838,548.922q.187-.022.372-.038Q593.025,548.9,592.838,548.922Z" transform="translate(-500.231 -462.842)" fill="#f7f9f9"/>
      <path id="Path_137" data-name="Path 137" d="M592.838,548.922q.187-.022.372-.038Q593.025,548.9,592.838,548.922Z" transform="translate(-500.231 -462.842)" fill="url(#linear-gradient-37)"/>
      <path id="Path_138" data-name="Path 138" d="M592.838,548.922q.187-.022.372-.038Q593.025,548.9,592.838,548.922Z" transform="translate(-500.231 -462.842)" fill="url(#linear-gradient-38)"/>
      <path id="Path_139" data-name="Path 139" d="M594.544,548.794q.189-.015.376-.024Q594.733,548.779,594.544,548.794Z" transform="translate(-501.518 -462.756)" fill="#f7f9f9"/>
      <path id="Path_140" data-name="Path 140" d="M594.544,548.794q.189-.015.376-.024Q594.733,548.779,594.544,548.794Z" transform="translate(-501.518 -462.756)" fill="url(#linear-gradient-39)"/>
      <path id="Path_141" data-name="Path 141" d="M594.544,548.794q.189-.015.376-.024Q594.733,548.779,594.544,548.794Z" transform="translate(-501.518 -462.756)" fill="url(#linear-gradient-40)"/>
      <path id="Path_142" data-name="Path 142" d="M587.567,549.724c.126-.03.251-.057.376-.083C587.818,549.667,587.693,549.694,587.567,549.724Z" transform="translate(-496.256 -463.413)" fill="#f7f9f9"/>
      <path id="Path_143" data-name="Path 143" d="M587.567,549.724c.126-.03.251-.057.376-.083C587.818,549.667,587.693,549.694,587.567,549.724Z" transform="translate(-496.256 -463.413)" fill="url(#linear-gradient-41)"/>
      <path id="Path_144" data-name="Path 144" d="M587.567,549.724c.126-.03.251-.057.376-.083C587.818,549.667,587.693,549.694,587.567,549.724Z" transform="translate(-496.256 -463.413)" fill="url(#linear-gradient-42)"/>
      <path id="Path_145" data-name="Path 145" d="M563.582,564.815q.1-.124.2-.244Q563.684,564.691,563.582,564.815Z" transform="translate(-478.165 -474.674)" fill="#f7f9f9"/>
      <path id="Path_146" data-name="Path 146" d="M563.582,564.815q.1-.124.2-.244Q563.684,564.691,563.582,564.815Z" transform="translate(-478.165 -474.674)" fill="url(#linear-gradient-43)"/>
      <path id="Path_147" data-name="Path 147" d="M563.582,564.815q.1-.124.2-.244Q563.684,564.691,563.582,564.815Z" transform="translate(-478.165 -474.674)" fill="url(#linear-gradient-44)"/>
      <path id="Path_148" data-name="Path 148" d="M554.313,579.54c.055-.117.111-.231.166-.345C554.424,579.309,554.368,579.422,554.313,579.54Z" transform="translate(-471.174 -485.704)" fill="#f7f9f9"/>
      <path id="Path_149" data-name="Path 149" d="M554.313,579.54c.055-.117.111-.231.166-.345C554.424,579.309,554.368,579.422,554.313,579.54Z" transform="translate(-471.174 -485.704)" fill="url(#linear-gradient-45)"/>
      <path id="Path_150" data-name="Path 150" d="M554.313,579.54c.055-.117.111-.231.166-.345C554.424,579.309,554.368,579.422,554.313,579.54Z" transform="translate(-471.174 -485.704)" fill="url(#linear-gradient-46)"/>
      <path id="Path_151" data-name="Path 151" d="M597.388,549.538s-.064.034-.177.1C597.269,549.6,597.328,549.568,597.388,549.538Z" transform="translate(-503.53 -463.335)" fill="#f7f9f9"/>
      <path id="Path_152" data-name="Path 152" d="M597.388,549.538s-.064.034-.177.1C597.269,549.6,597.328,549.568,597.388,549.538Z" transform="translate(-503.53 -463.335)" fill="url(#linear-gradient-47)"/>
      <path id="Path_153" data-name="Path 153" d="M597.388,549.538s-.064.034-.177.1C597.269,549.6,597.328,549.568,597.388,549.538Z" transform="translate(-503.53 -463.335)" fill="url(#linear-gradient-48)"/>
      <path id="Path_154" data-name="Path 154" d="M551.615,585.849c.048-.128.1-.25.148-.375C551.714,585.6,551.663,585.722,551.615,585.849Z" transform="translate(-469.139 -490.441)" fill="#f7f9f9"/>
      <path id="Path_155" data-name="Path 155" d="M551.615,585.849c.048-.128.1-.25.148-.375C551.714,585.6,551.663,585.722,551.615,585.849Z" transform="translate(-469.139 -490.441)" fill="url(#linear-gradient-49)"/>
      <path id="Path_156" data-name="Path 156" d="M551.615,585.849c.048-.128.1-.25.148-.375C551.714,585.6,551.663,585.722,551.615,585.849Z" transform="translate(-469.139 -490.441)" fill="url(#linear-gradient-50)"/>
      <path id="Path_157" data-name="Path 157" d="M555.745,576.664c.057-.112.115-.22.174-.328C555.86,576.444,555.8,576.552,555.745,576.664Z" transform="translate(-472.254 -483.548)" fill="#f7f9f9"/>
      <path id="Path_158" data-name="Path 158" d="M555.745,576.664c.057-.112.115-.22.174-.328C555.86,576.444,555.8,576.552,555.745,576.664Z" transform="translate(-472.254 -483.548)" fill="url(#linear-gradient-51)"/>
      <path id="Path_159" data-name="Path 159" d="M555.745,576.664c.057-.112.115-.22.174-.328C555.86,576.444,555.8,576.552,555.745,576.664Z" transform="translate(-472.254 -483.548)" fill="url(#linear-gradient-52)"/>
      <path id="Path_160" data-name="Path 160" d="M561.936,566.864c.066-.088.133-.174.2-.26C562.069,566.689,562,566.776,561.936,566.864Z" transform="translate(-476.923 -476.207)" fill="#f7f9f9"/>
      <path id="Path_161" data-name="Path 161" d="M561.936,566.864c.066-.088.133-.174.2-.26C562.069,566.689,562,566.776,561.936,566.864Z" transform="translate(-476.923 -476.207)" fill="url(#linear-gradient-53)"/>
      <path id="Path_162" data-name="Path 162" d="M561.936,566.864c.066-.088.133-.174.2-.26C562.069,566.689,562,566.776,561.936,566.864Z" transform="translate(-476.923 -476.207)" fill="url(#linear-gradient-54)"/>
      <path id="Path_163" data-name="Path 163" d="M558.755,571.435c.062-.1.124-.2.187-.294C558.879,571.237,558.817,571.335,558.755,571.435Z" transform="translate(-474.524 -479.629)" fill="#f7f9f9"/>
      <path id="Path_164" data-name="Path 164" d="M558.755,571.435c.062-.1.124-.2.187-.294C558.879,571.237,558.817,571.335,558.755,571.435Z" transform="translate(-474.524 -479.629)" fill="url(#linear-gradient-55)"/>
      <path id="Path_165" data-name="Path 165" d="M558.755,571.435c.062-.1.124-.2.187-.294C558.879,571.237,558.817,571.335,558.755,571.435Z" transform="translate(-474.524 -479.629)" fill="url(#linear-gradient-56)"/>
      <path id="Path_166" data-name="Path 166" d="M560.326,569.07q.1-.14.193-.276Q560.422,568.93,560.326,569.07Z" transform="translate(-475.709 -477.859)" fill="#f7f9f9"/>
      <path id="Path_167" data-name="Path 167" d="M560.326,569.07q.1-.14.193-.276Q560.422,568.93,560.326,569.07Z" transform="translate(-475.709 -477.859)" fill="url(#linear-gradient-57)"/>
      <path id="Path_168" data-name="Path 168" d="M560.326,569.07q.1-.14.193-.276Q560.422,568.93,560.326,569.07Z" transform="translate(-475.709 -477.859)" fill="url(#linear-gradient-58)"/>
      <path id="Path_169" data-name="Path 169" d="M557.227,573.963c.06-.106.12-.209.181-.311C557.347,573.754,557.287,573.857,557.227,573.963Z" transform="translate(-473.372 -481.523)" fill="#f7f9f9"/>
      <path id="Path_170" data-name="Path 170" d="M557.227,573.963c.06-.106.12-.209.181-.311C557.347,573.754,557.287,573.857,557.227,573.963Z" transform="translate(-473.372 -481.523)" fill="url(#linear-gradient-59)"/>
      <path id="Path_171" data-name="Path 171" d="M557.227,573.963c.06-.106.12-.209.181-.311C557.347,573.754,557.287,573.857,557.227,573.963Z" transform="translate(-473.372 -481.523)" fill="url(#linear-gradient-60)"/>
      <path id="Path_172" data-name="Path 172" d="M565.262,562.917c.07-.077.139-.154.209-.228C565.4,562.763,565.332,562.839,565.262,562.917Z" transform="translate(-479.432 -473.254)" fill="#f7f9f9"/>
      <path id="Path_173" data-name="Path 173" d="M565.262,562.917c.07-.077.139-.154.209-.228C565.4,562.763,565.332,562.839,565.262,562.917Z" transform="translate(-479.432 -473.254)" fill="url(#linear-gradient-61)"/>
      <path id="Path_174" data-name="Path 174" d="M565.262,562.917c.07-.077.139-.154.209-.228C565.4,562.763,565.332,562.839,565.262,562.917Z" transform="translate(-479.432 -473.254)" fill="url(#linear-gradient-62)"/>
      <path id="Path_175" data-name="Path 175" d="M548.026,597c.032-.114.065-.222.1-.334C548.091,596.778,548.058,596.886,548.026,597Z" transform="translate(-466.432 -498.882)" fill="#f7f9f9"/>
      <path id="Path_176" data-name="Path 176" d="M548.026,597c.032-.114.065-.222.1-.334C548.091,596.778,548.058,596.886,548.026,597Z" transform="translate(-466.432 -498.882)" fill="url(#linear-gradient-63)"/>
      <path id="Path_177" data-name="Path 177" d="M548.026,597c.032-.114.065-.222.1-.334C548.091,596.778,548.058,596.886,548.026,597Z" transform="translate(-466.432 -498.882)" fill="url(#linear-gradient-64)"/>
      <path id="Path_178" data-name="Path 178" d="M549.157,593c.04-.128.081-.25.121-.375C549.238,592.749,549.2,592.871,549.157,593Z" transform="translate(-467.285 -495.833)" fill="#f7f9f9"/>
      <path id="Path_179" data-name="Path 179" d="M549.157,593c.04-.128.081-.25.121-.375C549.238,592.749,549.2,592.871,549.157,593Z" transform="translate(-467.285 -495.833)" fill="url(#linear-gradient-65)"/>
      <path id="Path_180" data-name="Path 180" d="M549.157,593c.04-.128.081-.25.121-.375C549.238,592.749,549.2,592.871,549.157,593Z" transform="translate(-467.285 -495.833)" fill="url(#linear-gradient-66)"/>
      <path id="Path_181" data-name="Path 181" d="M566.966,561.16c.072-.072.143-.144.216-.214C567.109,561.015,567.038,561.088,566.966,561.16Z" transform="translate(-480.717 -471.94)" fill="#f7f9f9"/>
      <path id="Path_182" data-name="Path 182" d="M566.966,561.16c.072-.072.143-.144.216-.214C567.109,561.015,567.038,561.088,566.966,561.16Z" transform="translate(-480.717 -471.94)" fill="url(#linear-gradient-67)"/>
      <path id="Path_183" data-name="Path 183" d="M566.966,561.16c.072-.072.143-.144.216-.214C567.109,561.015,567.038,561.088,566.966,561.16Z" transform="translate(-480.717 -471.94)" fill="url(#linear-gradient-68)"/>
      <path id="Path_184" data-name="Path 184" d="M568.693,559.545c.074-.067.148-.135.223-.2C568.841,559.41,568.767,559.478,568.693,559.545Z" transform="translate(-482.02 -470.732)" fill="#f7f9f9"/>
      <path id="Path_185" data-name="Path 185" d="M568.693,559.545c.074-.067.148-.135.223-.2C568.841,559.41,568.767,559.478,568.693,559.545Z" transform="translate(-482.02 -470.732)" fill="url(#linear-gradient-69)"/>
      <path id="Path_186" data-name="Path 186" d="M568.693,559.545c.074-.067.148-.135.223-.2C568.841,559.41,568.767,559.478,568.693,559.545Z" transform="translate(-482.02 -470.732)" fill="url(#linear-gradient-70)"/>
      <path id="Path_187" data-name="Path 187" d="M550.353,589.306c.045-.13.092-.255.137-.382C550.445,589.051,550.4,589.176,550.353,589.306Z" transform="translate(-468.187 -493.042)" fill="#f7f9f9"/>
      <path id="Path_188" data-name="Path 188" d="M550.353,589.306c.045-.13.092-.255.137-.382C550.445,589.051,550.4,589.176,550.353,589.306Z" transform="translate(-468.187 -493.042)" fill="url(#linear-gradient-71)"/>
      <path id="Path_189" data-name="Path 189" d="M550.353,589.306c.045-.13.092-.255.137-.382C550.445,589.051,550.4,589.176,550.353,589.306Z" transform="translate(-468.187 -493.042)" fill="url(#linear-gradient-72)"/>
      <path id="Path_190" data-name="Path 190" d="M597.109,549.96l-.033.02Z" transform="translate(-503.428 -463.654)" fill="#003e6f"/>
      <path id="Path_191" data-name="Path 191" d="M556.451,575.266c.063-.118.127-.235.191-.348C556.578,575.032,556.514,575.149,556.451,575.266Z" transform="translate(-472.786 -482.478)" fill="#003e6f"/>
      <path id="Path_192" data-name="Path 192" d="M557.962,572.659c.065-.109.129-.218.195-.323C558.091,572.441,558.027,572.55,557.962,572.659Z" transform="translate(-473.926 -480.531)" fill="#003e6f"/>
      <path id="Path_193" data-name="Path 193" d="M549.651,591.005c.057-.177.114-.356.172-.527C549.765,590.65,549.708,590.828,549.651,591.005Z" transform="translate(-467.657 -494.214)" fill="#003e6f"/>
      <path id="Path_194" data-name="Path 194" d="M550.912,587.472c.057-.159.114-.319.173-.473C551.026,587.153,550.969,587.313,550.912,587.472Z" transform="translate(-468.609 -491.59)" fill="#003e6f"/>
      <path id="Path_195" data-name="Path 195" d="M546.968,599.028q.125-.514.26-1Q547.093,598.515,546.968,599.028Z" transform="translate(-465.634 -499.907)" fill="#003e6f"/>
      <path id="Path_196" data-name="Path 196" d="M553.577,581c.06-.136.12-.272.181-.4C553.7,580.729,553.637,580.865,553.577,581Z" transform="translate(-470.619 -486.762)" fill="#003e6f"/>
      <path id="Path_197" data-name="Path 197" d="M554.989,578.045c.062-.126.123-.253.186-.375C555.112,577.792,555.051,577.919,554.989,578.045Z" transform="translate(-471.684 -484.554)" fill="#003e6f"/>
      <path id="Path_198" data-name="Path 198" d="M548.422,594.77c.059-.208.119-.417.181-.618C548.541,594.353,548.481,594.562,548.422,594.77Z" transform="translate(-466.73 -496.985)" fill="#003e6f"/>
      <path id="Path_199" data-name="Path 199" d="M571.374,557.412c.067-.053.134-.1.2-.152C571.508,557.31,571.441,557.36,571.374,557.412Z" transform="translate(-484.042 -469.16)" fill="#003e6f"/>
      <path id="Path_200" data-name="Path 200" d="M576.8,554.026l.126-.067Z" transform="translate(-488.134 -466.67)" fill="#003e6f"/>
      <path id="Path_201" data-name="Path 201" d="M585.675,550.465l.024-.008Z" transform="translate(-494.829 -464.028)" fill="#003e6f"/>
      <path id="Path_202" data-name="Path 202" d="M566.114,562.03c.069-.073.139-.144.209-.215C566.253,561.886,566.183,561.956,566.114,562.03Z" transform="translate(-480.075 -472.595)" fill="#003e6f"/>
      <path id="Path_203" data-name="Path 203" d="M587.358,549.993l.051-.014Z" transform="translate(-496.098 -463.668)" fill="#003e6f"/>
      <path id="Path_204" data-name="Path 204" d="M573.169,556.143c.064-.045.127-.086.191-.13C573.3,556.057,573.233,556.1,573.169,556.143Z" transform="translate(-485.396 -468.22)" fill="#003e6f"/>
      <path id="Path_205" data-name="Path 205" d="M569.6,558.815c.068-.06.137-.116.206-.173C569.737,558.7,569.668,558.755,569.6,558.815Z" transform="translate(-482.704 -470.202)" fill="#003e6f"/>
      <path id="Path_206" data-name="Path 206" d="M589.1,549.6l.061-.013Z" transform="translate(-497.409 -463.372)" fill="#003e6f"/>
      <path id="Path_207" data-name="Path 207" d="M567.845,560.352c.069-.066.139-.13.208-.193C567.984,560.223,567.914,560.286,567.845,560.352Z" transform="translate(-481.38 -471.346)" fill="#003e6f"/>
      <path id="Path_208" data-name="Path 208" d="M574.979,555.01c.057-.036.114-.069.171-.1C575.093,554.941,575.036,554.974,574.979,555.01Z" transform="translate(-486.761 -467.384)" fill="#003e6f"/>
      <path id="Path_209" data-name="Path 209" d="M552.219,584.14c.058-.146.116-.293.176-.435C552.335,583.847,552.277,583.994,552.219,584.14Z" transform="translate(-469.594 -489.106)" fill="#003e6f"/>
      <path id="Path_210" data-name="Path 210" d="M597.782,548.716h0Z" transform="translate(-503.951 -462.715)" fill="#003e6f"/>
      <path id="Path_211" data-name="Path 211" d="M596.073,548.765l.035,0Z" transform="translate(-502.671 -462.751)" fill="#003e6f"/>
      <path id="Path_212" data-name="Path 212" d="M561.112,567.939c.067-.095.134-.187.2-.278C561.246,567.752,561.179,567.845,561.112,567.939Z" transform="translate(-476.302 -477.004)" fill="#003e6f"/>
      <path id="Path_213" data-name="Path 213" d="M559.516,570.219c.066-.1.132-.2.2-.3C559.648,570.016,559.582,570.117,559.516,570.219Z" transform="translate(-475.098 -478.707)" fill="#003e6f"/>
      <path id="Path_214" data-name="Path 214" d="M564.414,563.85c.069-.08.138-.158.208-.235C564.552,563.692,564.483,563.77,564.414,563.85Z" transform="translate(-478.792 -473.953)" fill="#003e6f"/>
      <path id="Path_215" data-name="Path 215" d="M590.853,549.285l.061-.011Z" transform="translate(-498.734 -463.136)" fill="#003e6f"/>
      <path id="Path_216" data-name="Path 216" d="M592.606,549.044l.057-.007Z" transform="translate(-500.056 -462.957)" fill="#003e6f"/>
      <path id="Path_217" data-name="Path 217" d="M594.351,548.872l.047,0Z" transform="translate(-501.372 -462.83)" fill="#003e6f"/>
      <path id="Path_218" data-name="Path 218" d="M562.745,565.82c.068-.087.137-.172.206-.255C562.882,565.648,562.813,565.734,562.745,565.82Z" transform="translate(-477.534 -475.424)" fill="#003e6f"/>
      <path id="Path_219" data-name="Path 219" d="M557.106,548.716c-.126,0-.253.005-.382.011l-.035,0q-.186.009-.376.024l-.047,0q-.185.016-.372.038l-.057.007c-.122.015-.245.032-.37.051l-.061.011c-.123.02-.246.042-.37.066l-.061.013c-.125.026-.25.053-.376.083l-.051.014c-.129.032-.259.066-.389.1l-.024.008a10.27,10.27,0,0,0-2.055.853l-.126.067c-.092.053-.184.109-.276.165-.057.035-.114.068-.171.1-.085.054-.169.112-.254.169-.064.043-.128.084-.191.13-.08.057-.16.117-.24.177s-.135.1-.2.152-.154.124-.23.188-.137.113-.206.173-.149.133-.223.2-.139.128-.208.193-.144.142-.216.214-.14.141-.209.215-.14.15-.209.228-.14.155-.208.235-.137.161-.2.244-.138.169-.206.255-.133.172-.2.26-.135.184-.2.278-.129.183-.193.276-.133.2-.2.3-.125.194-.187.294-.13.214-.195.323-.121.205-.181.311-.127.231-.191.348-.116.216-.174.328-.124.249-.186.375-.111.227-.166.345-.121.267-.181.4c-.053.12-.106.237-.158.36-.06.142-.118.289-.176.435-.05.124-.1.247-.148.375-.059.154-.116.314-.173.473-.046.127-.092.252-.137.382-.059.172-.115.35-.172.527-.041.125-.082.247-.121.375-.062.2-.121.41-.181.618-.032.112-.066.22-.1.334q-.135.489-.26,1c-2.324,9.5.974,22.6,5.511,34.081h11.727a112.855,112.855,0,0,1-7.65-15.113c-9.643-22.951,1.071-30.728,2.726-31.762l.033-.02c.113-.069.177-.1.177-.1s-.011-.085-.028-.2Z" transform="translate(-463.287 -462.715)" fill="url(#linear-gradient-73)"/>
      <path id="Path_220" data-name="Path 220" d="M388.687,630.937c0-.107.007-.214.01-.321C388.694,630.723,388.69,630.83,388.687,630.937Z" transform="translate(-346.25 -524.488)" fill="#003e6f"/>
      <path id="Path_221" data-name="Path 221" d="M389.3,486.084c.207-59.484,44.623-62.7,44.623-62.7l-8.2-5.539c-9.671,3.13-20.6,10.151-26.632,18.243-6.586,8.84-9.837,19.65-10.436,32.121-.03.634-.054,1.276-.073,1.923,0,.107-.007.214-.01.321A106.532,106.532,0,0,0,389.3,486.084Z" transform="translate(-346.132 -364.007)" fill="url(#linear-gradient-74)"/>
    </g>
  </g>
</svg>
